<svg xmlns="http://www.w3.org/2000/svg" width="300.024" height="300.024" viewBox="0 0 1080 1080">
  <defs>
    <style>
      .cls-1 {
        fill: none;
        stroke: #0a0a0a;
        stroke-width: 25px;
      }

      .cls-1, .cls-3, .cls-4 {
        fill-rule: evenodd;
      }

      .cls-2, .cls-4 {
        fill: #0a0a0a;
      }

      .cls-3 {
        stroke: #000;
        stroke-width: 1px;
      }
    </style>
  </defs>
  <path id="Polygon_1" data-name="Polygon 1" class="cls-1" d="M540.035,86.985L860.355,219.7l132.66,320.34-132.71,320.32-320.34,132.66-320.32-132.71L86.985,539.965,219.7,219.645Z"/>
  <rect id="bar" class="cls-2" x="372" y="515" width="336" height="51"/>
  <path id="Stronglab" class="cls-3" d="M241.4,751.624q3.667,3.249,4.759,4.394a15.989,15.989,0,0,1,2.006,2.621,15.088,15.088,0,0,1,3.1,8.754,7.332,7.332,0,0,1-1.17,4.4,3.752,3.752,0,0,1-3.2,1.6,4.519,4.519,0,0,1-3.2-1.526,14.347,14.347,0,0,1-2.289-3.28,31.882,31.882,0,0,1-1.78-5.061,23.67,23.67,0,0,0-1.246-3.789,4.877,4.877,0,0,0-1.45-1.984,3.317,3.317,0,0,0-1.984-.585,12.155,12.155,0,0,0-5.01,1.424,18,18,0,0,0-5.01,3.459,5.8,5.8,0,0,0-1.983,4.069q0,3.408,4.476,7.833a32.91,32.91,0,0,0,9.257,6.409,24.271,24.271,0,0,0,10.121,2.237,18.882,18.882,0,0,0,10.554-3.382,25.512,25.512,0,0,0,8.215-8.875,22.873,22.873,0,0,0,3.1-11.394,17.745,17.745,0,0,0-1.068-6.23,21.172,21.172,0,0,0-3.382-5.773,60.027,60.027,0,0,0-6.594-6.758,39.706,39.706,0,0,1-4.331-4.468A13.056,13.056,0,0,1,251,731.732a13.382,13.382,0,0,1-.652-4.252,11.655,11.655,0,0,1,.763-3.947,9.841,9.841,0,0,1,2.136-3.54,1.886,1.886,0,0,1,1.271-.865q1.119,0,2.366,1.806a15.676,15.676,0,0,1,2.034,4.475,18.726,18.726,0,0,1,.788,5.316,34,34,0,0,1-.3,4.272q-0.2,1.629-.2,1.577,0,2.034,1.322,2.034a5.479,5.479,0,0,0,2.645-.941,18.126,18.126,0,0,0,3.408-2.772,21.4,21.4,0,0,0,4.222-5.7,13.171,13.171,0,0,0,1.525-5.9,10.947,10.947,0,0,0-4.221-9.206q-4.222-3.255-12.055-3.256a28.259,28.259,0,0,0-12.944,3.052,25.355,25.355,0,0,0-9.613,8.24,19.145,19.145,0,0,0-3.586,11.088,15.736,15.736,0,0,0,1.78,7.35,34.51,34.51,0,0,0,6.155,7.858q2.445,2.284,3.565,3.2h0Zm71.829-5.818,0.759-3.056q1.721-6.519,2.176-7.691a28.978,28.978,0,0,0,1.417-6.163,3.747,3.747,0,0,0-1.221-2.7l1.018-.2a6.035,6.035,0,0,1,1.068-.1q5.9-.962,7.171-2.381A6.2,6.2,0,0,0,327.167,721a9.437,9.437,0,0,0,.635-3.318A3.964,3.964,0,0,0,326.785,715a6.594,6.594,0,0,0-3.052-1.571,55.169,55.169,0,0,0-7.375-.71l-1.373-.151-1.424-.1q-6.613-.458-10.325-0.585t-5.849-.127a13.266,13.266,0,0,0-5.646,1.093,18.505,18.505,0,0,0-5.086,3.891q-4.071,4.325-4.069,7.121,0,4.376,6.256,4.374a88.333,88.333,0,0,0,12.919-.991q-0.815,1.829-2.772,6.3t-3.51,8.44q-1.552,3.972-2.645,7.127t-2.416,7.433q-4.374,13.44-4.374,18.43a6.446,6.446,0,0,0,1.757,4.607,5.687,5.687,0,0,0,4.3,1.858q3.665,0,10.079-4.174a9.805,9.805,0,0,0,3.054-3.1q2.24-3.921,5.9-19.6,0.153-.611.28-1.2c0.084-.39.195-0.848,0.33-1.374s0.289-1.162.459-1.909l0.509-2.189Zm33.973-3.993q-2.619,7.274-5.01,14.877T338.655,769a33.066,33.066,0,0,0-1.144,6.637q0,4.68,4.173,4.68a15.484,15.484,0,0,0,5.9-1.729,14.372,14.372,0,0,0,9.136-9.711q1.806-4.425,4.455-13.579l1.07-3.865q4.276-14.035,8.657-29.955,4.563,1.019,6.641,3.535a10.767,10.767,0,0,1,2.078,7.043,21.5,21.5,0,0,1-5.442,14.087,32.322,32.322,0,0,1-3.713,3.077,16.961,16.961,0,0,1-3.764,1.8,5.634,5.634,0,0,0-2.238,1.119,2.265,2.265,0,0,0-.61,1.678,5.038,5.038,0,0,0,.1,1.169,38.776,38.776,0,0,0,1.6,4.959,61.2,61.2,0,0,0,2.619,5.8q1.526,2.975,3.027,5.314a40.218,40.218,0,0,0,3.28,4.424,20.734,20.734,0,0,0,5.875,4.247,14.075,14.075,0,0,0,6.027,1.8q4.425,0,7.579-4.17a20.676,20.676,0,0,0,2.543-4.324,39.884,39.884,0,0,0,1.729-6.307,7.725,7.725,0,0,1-1.017-.407q-8.546-3.357-13.123-7.476a30.056,30.056,0,0,1-2.467-2.7,21.783,21.783,0,0,1-1.7-2.747,35.379,35.379,0,0,0,5.7-2.136,23.139,23.139,0,0,0,4.273-2.95,20.386,20.386,0,0,0,5.34-6.79,19.083,19.083,0,0,0,1.882-8.418,14.846,14.846,0,0,0-2.162-7.807,21.556,21.556,0,0,0-6.027-6.358,30.532,30.532,0,0,0-9.181-4.349,39.091,39.091,0,0,0-11.164-1.577,72.583,72.583,0,0,0-13.3,1.069q-5.673,1.068-7.452,2.746a6.653,6.653,0,0,0-1.449,2.213,6.423,6.423,0,0,0-.636,2.517,2.2,2.2,0,0,0,2.492,2.493,14.967,14.967,0,0,0,2.8-.2q1.626-.3,3.153-0.458l-1.373,3.459Q349.819,734.539,347.2,741.813Zm97.422-19.608a33.673,33.673,0,0,1,5.9-2.212,30.977,30.977,0,0,0,5.417-1.933,19.046,19.046,0,0,0,3.891-2.95,4.332,4.332,0,0,0,1.22-2.187q0-1.781-5.8-1.781a36.047,36.047,0,0,0-9.562,1.526,49.852,49.852,0,0,0-10.173,4.069,44.894,44.894,0,0,0-10.1,7.63,61.634,61.634,0,0,0-8.647,10.655A56.407,56.407,0,0,0,410.9,747a35.562,35.562,0,0,0-2.137,11.647q0,9.461,5.85,15.31a24.532,24.532,0,0,0,9,5.6,31.573,31.573,0,0,0,11.19,2.085,31.047,31.047,0,0,0,18.234-5.925,41.037,41.037,0,0,0,13.326-16.073,50.194,50.194,0,0,0,4.909-22.151,41.191,41.191,0,0,0-1.068-9.536q-1.07-4.5-2.7-6.18a4.875,4.875,0,0,0-1.908-1.348,6.011,6.011,0,0,0-2.365-.534,11.744,11.744,0,0,0-5.289,1.933A30.542,30.542,0,0,0,452,726.249a5.82,5.82,0,0,0-2.289,4.17q0,1.121,1.78,4.171,4.781,7.579,4.781,14.547a24.067,24.067,0,0,1-1.475,8.036,30.3,30.3,0,0,1-3.891,7.553,22.653,22.653,0,0,1-5.391,5.468,10.156,10.156,0,0,1-5.824,2.085,8.613,8.613,0,0,1-6-2.263,14.038,14.038,0,0,1-3.764-6.714,41.132,41.132,0,0,1-1.271-11.113,32.212,32.212,0,0,1,.763-7.731A27.5,27.5,0,0,1,431.4,738a37.181,37.181,0,0,1,3.434-6.485,48.6,48.6,0,0,1,5.111-5.773A27.006,27.006,0,0,1,444.622,722.205Zm41.656,38.63a105.134,105.134,0,0,1-5.955,12.156q-2.292,3.867-2.291,5.443,0,2.087,2.594,2.085a15.586,15.586,0,0,0,6.257-1.373,20.529,20.529,0,0,0,5.749-3.766,18.009,18.009,0,0,0,2.7-3.408,28.094,28.094,0,0,0,2.136-4.248q1.068-2.57,2.748-7.657,0.2-.458.484-1.145c0.186-.457.348-0.874,0.484-1.247q0.2-.712.51-1.5a8.323,8.323,0,0,0,.407-1.3l6.167-19.39h0.2a47.139,47.139,0,0,0,1.462,5.555,151.729,151.729,0,0,0,12.9,30.738q4.536,8.334,8.462,8.333a4.519,4.519,0,0,0,3.11-1.577,10.9,10.9,0,0,0,1.58-1.982q3.212-5.136,9.38-22.374,0.3-.764.711-1.984l0.762-1.882q3.453-9.359,5.763-15.946t3.579-10.784a68.922,68.922,0,0,0,1.768-6.843,8.779,8.779,0,0,0,.2-2.188,4.9,4.9,0,0,0-.559-2.748,2.368,2.368,0,0,0-2.032-.763,12.406,12.406,0,0,0-4.853,1.017,15.4,15.4,0,0,0-4.5,2.95,13.461,13.461,0,0,0-1.981,2.7q-2.795,4.781-6.148,18.412-2.288,8.648-3.964,13.987a28.041,28.041,0,0,1-1.874-3.154,58.275,58.275,0,0,1-3.067-7.377q-1.851-5.141-3.37-10.636-3.7-13.533-6.25-16.121-2.193-2.283-6.478-2.283a25.1,25.1,0,0,0-5.612.839,42.112,42.112,0,0,0-6.172,1.959q-3.162,1.17-3.162,2.187,0,0.813,1.589,1.882,2.4,1.73,2.4,3.2a10.423,10.423,0,0,1-1.424,3.865A102.993,102.993,0,0,0,496.205,735l-4.836,12.258-3.512,9.613q-1.019,2.34-1.579,3.967h0ZM601.75,781.028a80.508,80.508,0,0,1-3.434,10.223,31.09,31.09,0,0,1-6.154-5.544q-2.391-2.9-3.713-2.9-1.272,0-5.137,2.594a19.435,19.435,0,0,0-3.866,3.255,4.7,4.7,0,0,0-1.424,2.9q0,1.933,2.492,3.917a20.307,20.307,0,0,0,6.384,3.255A24.572,24.572,0,0,0,594.553,800a26.241,26.241,0,0,0,8.952-1.576,16.639,16.639,0,0,0,6.613-3.968q4.832-5.238,9.969-17.6a182.572,182.572,0,0,0,8.733-27.267q0.3-1.981.3-2.236,0-3.1-3.1-3.1a26.288,26.288,0,0,0-7.447,1.551,35.483,35.483,0,0,0-7.954,3.535,6.037,6.037,0,0,0-1.805,1.6q-0.636.891-2.465,4.146-5.8,11.75-10.427,11.749a5.064,5.064,0,0,1-4.374-2.518,11.372,11.372,0,0,1-1.679-6.434,38.681,38.681,0,0,1,1.195-9.053,59.236,59.236,0,0,1,3.306-9.766,46.587,46.587,0,0,1,4.6-8.341,34.033,34.033,0,0,1,7.044-7.426q4.3-3.408,6.688-3.408,1.017,0,1.018,4.272a41.568,41.568,0,0,1-.814,6.867,24.9,24.9,0,0,1-2.086,5.849,6.456,6.456,0,0,0-.61,1.729q0,1.272,1.78,1.272a15.2,15.2,0,0,0,8.291-2.492,18.786,18.786,0,0,0,6.281-6.613,16.845,16.845,0,0,0,2.366-8.494q0-11.239-12.818-11.24a35.606,35.606,0,0,0-16.428,4.374,64.1,64.1,0,0,0-27.034,27.644,37.708,37.708,0,0,0-4.247,16.708,29.008,29.008,0,0,0,2.009,11.292,15.934,15.934,0,0,0,5.824,7.324,16.118,16.118,0,0,0,9.155,2.543,19.585,19.585,0,0,0,8.876-2.213,41.125,41.125,0,0,0,9.486-7.044A64.946,64.946,0,0,1,601.75,781.028Zm72.136-58.112q1.83-5.721,1.831-7.806a3.361,3.361,0,0,0-1.4-3.077,9.6,9.6,0,0,0-4.857-.891,31.5,31.5,0,0,0-6.559.611,13.88,13.88,0,0,0-4.652,1.7,8.553,8.553,0,0,0-2.821,3.077q-3.51,5.8-10.427,30.416-3.051,11.037-4.654,18.463a58.6,58.6,0,0,0-1.6,10.223q0,3.867,2.9,5.087,1.628,0.507,1.679.508a95.343,95.343,0,0,0,10.121.407,62.639,62.639,0,0,0,10.325-.61,9.728,9.728,0,0,0,4.985-2.187,25.649,25.649,0,0,0,4.4-5.214q1.956-3.025,1.958-4.7,0-1.422-1.78-1.424a44.578,44.578,0,0,0-5.545.916,106.829,106.829,0,0,1-11.344,1.781q2.8-9.36,4.169-13.124,2.847-7.782,6.153-15.617l1.677-4.069Q672.055,728.637,673.886,722.916Zm51.073,9.517,4.255,19.756H715.467l9.29-19.756h0.2ZM714.3,729.682q-2.264,3.993-4.043,7.121t-2.9,5.188l-5.188,9.536a22.855,22.855,0,0,0-6.129.636,9.915,9.915,0,0,0-3.79,2.721q-4.272,4.425-4.272,6.663,0,2.746,5.34,3.764-0.966,1.525-2.95,4.171-5.6,7.58-5.594,9.257a2.075,2.075,0,0,0,1.169,1.984,9.1,9.1,0,0,0,3.917.61,21.555,21.555,0,0,0,7.958-1.272,13.575,13.575,0,0,0,5.621-4.374,48.5,48.5,0,0,0,5.248-9.074l0.469-1q9.7,0.2,10.874.306,1.379,0.1,3.267.1,3.318,0,9.291-2.493,0.358,1.018.639,1.882t0.484,1.423a54.038,54.038,0,0,0,3.864,9.411,11.054,11.054,0,0,0,3.636,3.714,9.818,9.818,0,0,0,5.009,1.169,13.309,13.309,0,0,0,5.389-1.322,45.883,45.883,0,0,0,7.221-4.323q-3.409-6.51-5.087-10.478-0.762-1.832-1.6-3.942t-1.348-3.28q-1.529-4.068-2.115-5.925t-2.369-8.519q-0.561-2.39-1.325-7.12a92.188,92.188,0,0,0-3.1-14.342,20.894,20.894,0,0,0-4.321-7.836q-3.051-3.2-8.643-3.205a29.7,29.7,0,0,0-9.455,1.323,7.83,7.83,0,0,0-2.186,1.271l3.1,5.595Q716.56,725.691,714.3,729.682Zm90.653-7.807q7.327,0,7.328,6.968a12.109,12.109,0,0,1-2.456,6.892,27.159,27.159,0,0,1-6.911,6.637q-3.546,2.493-6.229,2.492a7.324,7.324,0,0,1-1.215-.1l6.48-22.28a5.784,5.784,0,0,1,3-.608h0Zm-8.221,28.688a20.263,20.263,0,0,0,3.963,1.066,21.146,21.146,0,0,1,4.853,1.272,10.259,10.259,0,0,1,3.176,2.187,9.629,9.629,0,0,1,2.9,7.07,18.736,18.736,0,0,1-1.882,7.883,23.634,23.634,0,0,1-4.884,7.019,12.843,12.843,0,0,1-4.348,2.874,14.733,14.733,0,0,1-5.316.89,24.9,24.9,0,0,1-5.214-.559q-2.62-.559-8.774-2.442a23.762,23.762,0,0,0,3.662-4.526,51.359,51.359,0,0,0,4.247-8.545q2.01-5.035,4.414-13.12,0.2-.709.409-1.524t0.41-1.475A7.643,7.643,0,0,0,796.728,750.563Zm-27.939,16.656a42.831,42.831,0,0,0-1.424,7.349,5.781,5.781,0,0,0,1.73,4.425,6.329,6.329,0,0,0,4.526,1.628,7.707,7.707,0,0,0,2.7-.509l0.2,0.2a17.525,17.525,0,0,0-3.281,3.407,5.322,5.322,0,0,0-.89,2.95q0,1.73,2.187,3.23a18.131,18.131,0,0,0,5.875,2.416,31.826,31.826,0,0,0,7.7.916,34.057,34.057,0,0,0,11.5-2.493,76.466,76.466,0,0,0,13.352-6.561,64.534,64.534,0,0,0,11.469-8.8,23.827,23.827,0,0,0,3.84-4.73,23.189,23.189,0,0,0,2.442-5.29,17.444,17.444,0,0,0,.839-5.188q0-12.461-17.853-14.75V745.17a9.839,9.839,0,0,0,1.577-.306,26.585,26.585,0,0,0,8.748-4.577,21.257,21.257,0,0,0,6.1-6.765,17.193,17.193,0,0,0,1.933-8.24,11.01,11.01,0,0,0-1.7-6,14.22,14.22,0,0,0-4.959-4.6,26.1,26.1,0,0,0-7.859-2.873,50.308,50.308,0,0,0-10.3-.967,67.46,67.46,0,0,0-17.014,1.984q-7.6,1.983-11.317,5.391a18.349,18.349,0,0,0-3.255,4.731,11.831,11.831,0,0,0-1.628,4.832q0,1.577,2.086,1.576a15.82,15.82,0,0,0,4.984-1.424,6.053,6.053,0,0,1,1.17-.559,72.859,72.859,0,0,0-4.171,9.613l-5.951,18.31Q770.213,761.446,768.789,767.219Z"/>
  <path id="rechts_groot" data-name="rechts groot" class="cls-4" d="M743,394.891h40a20,20,0,0,1,20,20v250a20,20,0,0,1-20,20H743a20,20,0,0,1-20-20v-250A20,20,0,0,1,743,394.891Z"/>
  <path id="rechts_mid" data-name="rechts mid" class="cls-4" d="M838.169,428.418h21.5a20,20,0,0,1,20,20V631.363a20,20,0,0,1-20,20h-21.5a20,20,0,0,1-20-20V448.418A20,20,0,0,1,838.169,428.418Z"/>
  <path id="rechts_klein" data-name="rechts klein" class="cls-4" d="M913.635,462.652h2.339a20,20,0,0,1,20,20V596.13a20,20,0,0,1-20,20h-2.339a20,20,0,0,1-20-20V482.652A20,20,0,0,1,913.635,462.652Z"/>
  <path id="links_groot" data-name="links groot" class="cls-4" d="M337.612,395.389h-40a20,20,0,0,0-20,20v250a20,20,0,0,0,20,20h40a20,20,0,0,0,20-20v-250A20,20,0,0,0,337.612,395.389Z"/>
  <path id="links_mid" data-name="links mid" class="cls-4" d="M242.443,428.917h-21.5a20,20,0,0,0-20,20V631.862a20,20,0,0,0,20,20h21.5a20,20,0,0,0,20-20V448.917A20,20,0,0,0,242.443,428.917Z"/>
  <path id="links_klein" data-name="links klein" class="cls-4" d="M166.976,463.151h-2.338a20,20,0,0,0-20,20V596.628a20,20,0,0,0,20,20h2.338a20,20,0,0,0,20-20V483.151A20,20,0,0,0,166.976,463.151Z"/>
</svg>
